CD_DA

CD_TEXT {
  LANGUAGE_MAP {
    0: 9
  }
  LANGUAGE 0 {
    TITLE "HEAVEN OR LAS VEGAS"
    PERFORMER "THE COCTEAU TWINS"
    MESSAGE "N/A"
    DISC_ID "GAD0012CD "
    GENRE { 0,  3,  0}
    SIZE_INFO { 0,  1, 10,  3, 18,  3,  0,  0,  0,  2,  1,  1,
                0,  0,  0,  0,  0,  0,  0,  3, 27,  0,  0,  0,
                0,  0,  0,  0,  9,  0,  0,  0,  0,  0,  0,  0}
  }
}

// Track 1
TRACK AUDIO
NO COPY
NO PRE_EMPHASIS
TWO_CHANNEL_AUDIO
ISRC "GBAFL9000062"
CD_TEXT {
  LANGUAGE 0 {
    TITLE "CHERRY-COLOURED FUNK"
    PERFORMER ""
    MESSAGE ""
    DISC_ID ""
  }
}
FILE "data.cdr" 0 03:11:32


// Track 2
TRACK AUDIO
NO COPY
NO PRE_EMPHASIS
TWO_CHANNEL_AUDIO
ISRC "GBAFL9000063"
CD_TEXT {
  LANGUAGE 0 {
    TITLE "PITCH THE BABY"
    PERFORMER ""
    MESSAGE ""
  }
}
FILE "data.cdr" 03:11:32 03:14:52
START 00:01:03


// Track 3
TRACK AUDIO
NO COPY
NO PRE_EMPHASIS
TWO_CHANNEL_AUDIO
ISRC "GBAFL9000038"
CD_TEXT {
  LANGUAGE 0 {
    TITLE "ICEBLINK LUCK"
    PERFORMER ""
    MESSAGE ""
  }
}
FILE "data.cdr" 06:26:09 03:17:55
START 00:00:32


// Track 4
TRACK AUDIO
NO COPY
NO PRE_EMPHASIS
TWO_CHANNEL_AUDIO
ISRC "GBAFL9000037"
CD_TEXT {
  LANGUAGE 0 {
    TITLE "FIFTY-FIFTY CLOWN"
    PERFORMER ""
    MESSAGE ""
  }
}
FILE "data.cdr" 09:43:64 03:11:10
START 00:01:27


// Track 5
TRACK AUDIO
NO COPY
NO PRE_EMPHASIS
TWO_CHANNEL_AUDIO
ISRC "GBAFL9000039"
CD_TEXT {
  LANGUAGE 0 {
    TITLE "HEAVEN OR LAS VEGAS"
    PERFORMER ""
    MESSAGE ""
  }
}
FILE "data.cdr" 12:54:74 04:56:34
START 00:00:33


// Track 6
TRACK AUDIO
NO COPY
NO PRE_EMPHASIS
TWO_CHANNEL_AUDIO
ISRC "GBAFL9000064"
CD_TEXT {
  LANGUAGE 0 {
    TITLE "I WEAR YOUR RING"
    PERFORMER ""
    MESSAGE ""
  }
}
FILE "data.cdr" 17:51:33 03:30:73
START 00:02:29


// Track 7
TRACK AUDIO
NO COPY
NO PRE_EMPHASIS
TWO_CHANNEL_AUDIO
ISRC "GBAFL9000065"
CD_TEXT {
  LANGUAGE 0 {
    TITLE "FOTZEPOLITIC"
    PERFORMER ""
    MESSAGE ""
  }
}
FILE "data.cdr" 21:22:31 03:29:20
START 00:00:57


// Track 8
TRACK AUDIO
NO COPY
NO PRE_EMPHASIS
TWO_CHANNEL_AUDIO
ISRC "GBAFL9000066"
CD_TEXT {
  LANGUAGE 0 {
    TITLE "WOLF IN THE BREAST"
    PERFORMER ""
    MESSAGE ""
  }
}
FILE "data.cdr" 24:51:51 03:32:13
START 00:02:32


// Track 9
TRACK AUDIO
NO COPY
NO PRE_EMPHASIS
TWO_CHANNEL_AUDIO
ISRC "GBAFL9000067"
CD_TEXT {
  LANGUAGE 0 {
    TITLE "ROAD,RIVER AND RAIL"
    PERFORMER ""
    MESSAGE ""
  }
}
FILE "data.cdr" 28:23:64 03:18:59
START 00:01:34


// Track 10
TRACK AUDIO
NO COPY
NO PRE_EMPHASIS
TWO_CHANNEL_AUDIO
ISRC "GBAFL9000068"
CD_TEXT {
  LANGUAGE 0 {
    TITLE "FROU-FROU FOXES IN MIDSUMMER FIRES"
    PERFORMER ""
    MESSAGE ""
  }
}
FILE "data.cdr" 31:42:48 05:41:65
START 00:03:61

